<?xml version="1.0" encoding="UTF-8"?>
<svg version="1.1" xmlns="http://www.w3.org/2000/svg" width="500" height="500">
<path d="M0 0 C165 0 330 0 500 0 C500 165 500 330 500 500 C335 500 170 500 0 500 C0 335 0 170 0 0 Z " fill="#C6C6C6" transform="translate(0,0)"/>
<path d="M0 0 C20.46 0 40.92 0 62 0 C62.66 4.95 63.32 9.9 64 15 C65.24293299 18.26845341 66.07720824 20.27554271 68 23 C68.48339844 23.68578125 68.96679688 24.3715625 69.46484375 25.078125 C74.42301887 31.37792398 81.07152602 35.48693245 89 37 C99.62134892 37.9627077 108.50590799 36.20860571 116.875 29.375 C125.77886113 20.69413361 126.29748924 12.76883067 128 0 C149.12 0 170.24 0 192 0 C192 27.84313479 181.17523135 51.17586365 162.0625 71.25 C143.52940786 89.09534067 118.59251118 97.4261274 93.22680664 97.30029297 C66.89011194 96.71846928 44.30287022 85.56313144 26 67 C25.25105469 66.26136719 24.50210938 65.52273438 23.73046875 64.76171875 C11.83872673 52.30705404 5.15419902 36.45973335 1.6875 19.8125 C1.51565186 18.99305908 1.34380371 18.17361816 1.16674805 17.3293457 C0.00710985 11.29014375 0 6.34802029 0 0 Z " fill="#FEFEFE" transform="translate(154,264)"/>
<path d="M0 0 C20.46 0 40.92 0 62 0 C62 20.46 62 40.92 62 62 C41.54 62 21.08 62 0 62 C0 41.54 0 21.08 0 0 Z " fill="#FEFEFE" transform="translate(154,139)"/>
<path d="M0 0 C20.79 0 41.58 0 63 0 C63 20.13 63 40.26 63 61 C42.21 61 21.42 61 0 61 C0 40.87 0 20.74 0 0 Z " fill="#FED002" transform="translate(282,140)"/>
</svg>
