<?xml version="1.0" encoding="UTF-8"?>
<svg version="1.1" xmlns="http://www.w3.org/2000/svg" width="500" height="500">
<path d="M0 0 C165 0 330 0 500 0 C500 165 500 330 500 500 C335 500 170 500 0 500 C0 335 0 170 0 0 Z " fill="#000000" transform="translate(0,0)"/>
<path d="M0 0 C-0.33 0.5775 -0.66 1.155 -1 1.75 C-2.27075898 4.19883862 -2.27075898 4.19883862 -2 8 C-7.22843512 11.30509312 -11.90638289 12.98899522 -17.9375 14.25 C-18.71673828 14.42273438 -19.49597656 14.59546875 -20.29882812 14.7734375 C-22.1969592 15.19265663 -24.09818643 15.5978167 -26 16 C-25.32759277 15.91959473 -24.65518555 15.83918945 -23.96240234 15.75634766 C37.00342794 8.50171397 37.00342794 8.50171397 44 12 C43.67 13.65 43.34 15.3 43 17 C42.01 17 41.02 17 40 17 C40 17.99 40 18.98 40 20 C40.66 20.33 41.32 20.66 42 21 C33.31096754 25.18479137 25.77360408 28.4072335 16 28 C16 27.34 16 26.68 16 26 C13.36 26 10.72 26 8 26 C8 25.34 8 24.68 8 24 C5.36 24.33 2.72 24.66 0 25 C0 24.34 0 23.68 0 23 C-2.77119784 24.7058258 -2.77119784 24.7058258 -4 26 C-23.99012517 29.76187795 -23.99012517 29.76187795 -29.5625 26.5 C-30.036875 26.005 -30.51125 25.51 -31 25 C-31.33 26.65 -31.66 28.3 -32 30 C-39.50769231 30.36923077 -39.50769231 30.36923077 -42 28.5 C-42.33 28.005 -42.66 27.51 -43 27 C-42.67 28.32 -42.34 29.64 -42 31 C-43.81114432 31.36103536 -45.62396823 31.71365504 -47.4375 32.0625 C-48.95150391 32.35833984 -48.95150391 32.35833984 -50.49609375 32.66015625 C-51.32238281 32.77230469 -52.14867187 32.88445312 -53 33 C-53.33 32.67 -53.66 32.34 -54 32 C-56.7685309 32.45261067 -56.7685309 32.45261067 -59 34 C-61.05051929 34.56616627 -63.11615988 35.07801706 -65.1875 35.5625 C-66.31542969 35.83191406 -67.44335938 36.10132813 -68.60546875 36.37890625 C-71.82820243 36.96856638 -74.73380511 37.11399466 -78 37 C-77.67 36.01 -77.34 35.02 -77 34 C-79.31 34.66 -81.62 35.32 -84 36 C-82.35 36.33 -80.7 36.66 -79 37 C-79 37.33 -79 37.66 -79 38 C-79.68586182 38.13986328 -80.37172363 38.27972656 -81.07836914 38.42382812 C-99.11434041 42.12901321 -116.90787215 46.44031879 -134.70800781 51.13525391 C-145.42603965 53.95068469 -156.19096405 56.55686174 -167 59 C-166.34 58.01 -165.68 57.02 -165 56 C-167.31 56 -169.62 56 -172 56 C-171.01 55.01 -170.02 54.02 -169 53 C-169.33 52.34 -169.66 51.68 -170 51 C-169.01 51 -168.02 51 -167 51 C-167 50.34 -167 49.68 -167 49 C-167.99 48.505 -167.99 48.505 -169 48 C-157.47530237 43.23296598 -145.80005883 39.03005492 -134 35 C-133.28183105 34.75330566 -132.56366211 34.50661133 -131.82373047 34.25244141 C-123.95367242 31.55397483 -116.06360125 29.06200198 -108 27 C-108.495 26.01 -108.495 26.01 -109 25 C-108.01 24.505 -108.01 24.505 -107 24 C-108.485 23.505 -108.485 23.505 -110 23 C-110 23.66 -110 24.32 -110 25 C-110.7425 25.28875 -111.485 25.5775 -112.25 25.875 C-114.86078874 26.87420504 -114.86078874 26.87420504 -116.640625 27.93359375 C-120.13953684 29.51505556 -123.77125965 30.31070792 -127.5 31.1875 C-128.25925781 31.37763672 -129.01851563 31.56777344 -129.80078125 31.76367188 C-130.53683594 31.93833984 -131.27289063 32.11300781 -132.03125 32.29296875 C-132.69705078 32.4530542 -133.36285156 32.61313965 -134.04882812 32.77807617 C-136.27212557 33.03095122 -137.87673786 32.65952499 -140 32 C-140 31.67 -140 31.34 -140 31 C-140.66 31 -141.32 31 -142 31 C-141.505 32.485 -141.505 32.485 -141 34 C-144.3 34.66 -147.6 35.32 -151 36 C-151 35.34 -151 34.68 -151 34 C-151.99 34 -152.98 34 -154 34 C-153.67 34.99 -153.34 35.98 -153 37 C-159.2322365 39.46937673 -165.51292846 41.3186083 -172 43 C-172 42.01 -172 41.02 -172 40 C-179.92 42.475 -179.92 42.475 -188 45 C-188 45.99 -188 46.98 -188 48 C-189.98 48.495 -189.98 48.495 -192 49 C-192 48.01 -192 47.02 -192 46 C-192.66 46 -193.32 46 -194 46 C-194 45.34 -194 44.68 -194 44 C-194.66 44.66 -195.32 45.32 -196 46 C-198.22189824 48.22189824 -200.08482708 48.92598892 -203 50 C-202.34 50.66 -201.68 51.32 -201 52 C-203.97 52.66 -206.94 53.32 -210 54 C-210.33 53.34 -210.66 52.68 -211 52 C-211.99 51.67 -212.98 51.34 -214 51 C-211.525 50.505 -211.525 50.505 -209 50 C-209 49.01 -209 48.02 -209 47 C-188.50140439 38.3882995 -167.47642022 31.70720333 -146 26 C-144.69653837 25.6500233 -143.39315148 25.29976812 -142.08984375 24.94921875 C-139.60920836 24.28480865 -137.12746483 23.62451946 -134.64453125 22.96875 C-132.18045597 22.31377608 -129.7195517 21.64677288 -127.26171875 20.96875 C-119.89109469 18.94814278 -112.53565247 17.21822849 -105.0234375 15.80859375 C-101.68045083 15.16549115 -98.37822896 14.38495368 -95.06640625 13.59765625 C-87.27924123 11.78641522 -79.43540411 10.3733577 -71.5625 9 C-70.82143005 8.86960327 -70.08036011 8.73920654 -69.3168335 8.6048584 C-57.62647456 6.55144822 -45.9224874 4.79719974 -34.14892578 3.28808594 C-28.25940768 2.49853455 -22.40791528 1.43780278 -16.5625 0.375 C-11.04835575 -0.20543624 -5.53914791 -0.07496591 0 0 Z " fill="#F2C700" transform="translate(327,253)"/>
<path d="M0 0 C0.66 0.66 1.32 1.32 2 2 C2.33 1.34 2.66 0.68 3 0 C4.32 0 5.64 0 7 0 C6.96241577 1.20100342 6.96241577 1.20100342 6.92407227 2.42626953 C6.82535599 5.59548724 6.72755355 8.76473195 6.63015747 11.93399048 C6.58501946 13.39573303 6.53950703 14.85746406 6.49362183 16.31918335 C6.21220107 25.28896409 5.96530972 34.25813098 5.78125 43.23046875 C5.72602285 45.76634711 5.67019578 48.30221164 5.61422729 50.83807373 C5.5801112 52.47005068 5.54905717 54.10209491 5.52127075 55.73419189 C5.09713609 80.51654937 5.09713609 80.51654937 0.625 85.8125 C-2 87 -2 87 -4.25 86.75 C-5.11625 86.37875 -5.11625 86.37875 -6 86 C-6.33 86 -6.66 86 -7 86 C-8.875 85.8125 -8.875 85.8125 -11 85 C-12.375 83 -12.375 83 -14 80 C-14.92694311 78.59713386 -15.86566177 77.20201585 -16.8125 75.8125 C-22.87137195 66.76918369 -29.16367742 57.23019354 -33 47 C-33.495 46.505 -33.495 46.505 -34 46 C-34.33 47.32 -34.66 48.64 -35 50 C-35.66 50 -36.32 50 -37 50 C-37 50.66 -37 51.32 -37 52 C-36.34 52 -35.68 52 -35 52 C-34.6893469 85.38803926 -34.6893469 85.38803926 -38 91 C-38.66 90.67 -39.32 90.34 -40 90 C-39.34 91.32 -38.68 92.64 -38 94 C-38.66 94 -39.32 94 -40 94 C-40 94.66 -40 95.32 -40 96 C-40.66 96 -41.32 96 -42 96 C-42.495 96.99 -42.495 96.99 -43 98 C-46 96 -46 96 -46.6875 93.875 C-46.790625 93.25625 -46.89375 92.6375 -47 92 C-47.99 92 -48.98 92 -50 92 C-52.54103566 87.13976514 -52.30204059 82.4686014 -52.25 77.125 C-52.24540771 76.13411377 -52.24081543 75.14322754 -52.23608398 74.12231445 C-52.09085054 61.5601026 -51.12978095 49.04122405 -50.23486328 36.515625 C-50.02507086 33.37528108 -49.85442467 30.23787874 -49.71484375 27.09375 C-49.67673584 26.2478833 -49.63862793 25.4020166 -49.59936523 24.53051758 C-49.53531575 23.02024025 -49.47829941 21.50964015 -49.42993164 19.9987793 C-49.21932793 15.21932793 -49.21932793 15.21932793 -47 13 C-44.7578125 12.8046875 -44.7578125 12.8046875 -42.125 12.875 C-40.82949219 12.90207031 -40.82949219 12.90207031 -39.5078125 12.9296875 C-38.26644531 12.96449219 -38.26644531 12.96449219 -37 13 C-35.68 13 -34.36 13 -33 13 C-33 13.66 -33 14.32 -33 15 C-32.01 15 -31.02 15 -30 15 C-28.61328125 16.64453125 -28.61328125 16.64453125 -27.3125 18.8125 C-26.65701172 19.87404297 -26.65701172 19.87404297 -25.98828125 20.95703125 C-25 23 -25 23 -25 26 C-24.34 26 -23.68 26 -23 26 C-22.01 28.97 -21.02 31.94 -20 35 C-19.34 35 -18.68 35 -18 35 C-16.02 38.96 -14.04 42.92 -12 47 C-11.9498877 45.68281982 -11.89977539 44.36563965 -11.84814453 43.00854492 C-11.65997068 38.1272814 -11.45953662 33.24658545 -11.25537109 28.3659668 C-11.16868287 26.25249497 -11.08533181 24.13888353 -11.00537109 22.02514648 C-10.88993881 18.98899234 -10.76256103 15.95354057 -10.6328125 12.91796875 C-10.58267502 11.4975251 -10.58267502 11.4975251 -10.53152466 10.04838562 C-10.49163422 9.16769913 -10.45174377 8.28701263 -10.41064453 7.37963867 C-10.37955597 6.60464523 -10.34846741 5.82965179 -10.31643677 5.03117371 C-10 3 -10 3 -8 0 C-4.67679974 -1.10773342 -3.30835256 -0.93312508 0 0 Z " fill="#F8CC00" transform="translate(244,173)"/>
<path d="M0 0 C0.33 0.99 0.66 1.98 1 3 C0.34 3 -0.32 3 -1 3 C-0.67 4.32 -0.34 5.64 0 7 C0.99 5.02 1.98 3.04 3 1 C3.66 1 4.32 1 5 1 C5 1.66 5 2.32 5 3 C5.66 3.33 6.32 3.66 7 4 C6.34 5.65 5.68 7.3 5 9 C5.66 9 6.32 9 7 9 C7 8.01 7 7.02 7 6 C8.093125 6.185625 9.18625 6.37125 10.3125 6.5625 C13.93624133 7.2578068 13.93624133 7.2578068 17 6 C23.81952087 10.04119755 26.05474535 15.54937657 28.11328125 23.015625 C31.71675937 38.03674343 27.49138264 55.68242192 19.52734375 68.7734375 C15.32620084 74.89786578 10.9657142 79.97612407 4 83 C-2.07069546 83.720252 -5.90098809 82.49263069 -10.8125 79 C-11.534375 78.34 -12.25625 77.68 -13 77 C-13 76.34 -13 75.68 -13 75 C-13.66 75 -14.32 75 -15 75 C-23.15883171 54.16725496 -22.91215521 31.7695291 -14 11 C-13.62746094 10.12472656 -13.25492187 9.24945313 -12.87109375 8.34765625 C-12.45988281 7.44917969 -12.04867188 6.55070313 -11.625 5.625 C-11.24601562 4.79226562 -10.86703125 3.95953125 -10.4765625 3.1015625 C-7.9149066 -0.54439219 -4.12655131 -1.91589882 0 0 Z " fill="#F9CD00" transform="translate(327,155)"/>
<path d="M0 0 C2.6875 1.375 2.6875 1.375 5 3 C5.86625 3.33 6.7325 3.66 7.625 4 C11.5 5.63157895 11.5 5.63157895 13 8 C13.70760536 16.49126428 11.57860809 23.17596704 6.71875 30.16796875 C5 32 5 32 1.3125 33.1875 C-2 33 -2 33 -5 31 C-5 30.34 -5 29.68 -5 29 C-5.66 29 -6.32 29 -7 29 C-7 26.03 -7 23.06 -7 20 C-9.16658535 21.49479421 -9.16658535 21.49479421 -11 24 C-11.59429276 28.60576887 -11.49671719 30.92018002 -9.5625 35.125 C-5.56020215 39.61538295 -0.73103103 43.08965632 5 45 C5 45.66 5 46.32 5 47 C5.763125 47.144375 6.52625 47.28875 7.3125 47.4375 C11.04787745 49.60923108 11.37092715 52.0782752 12.51953125 56.1015625 C12.67808594 56.72804687 12.83664062 57.35453125 13 58 C12.67 56.35 12.34 54.7 12 53 C15.30966364 55.88261027 16.5062078 57.6444996 17 62 C15.73556725 71.50455628 11.48699462 78.44297255 4.1875 84.5 C-2.40698787 88.59776326 -10.54548863 88.00450862 -18 87 C-24.46087028 85.44524512 -28.36835767 82.50248838 -32 77 C-34.17921934 72.12269958 -35.0748936 67.18118801 -33.32421875 62 C-32.60475072 60.30873865 -31.80844708 58.65057945 -31 57 C-28.66705225 56.95758277 -26.33297433 56.95907063 -24 57 C-23 58 -23 58 -22.9375 61.0625 C-22.958125 62.031875 -22.97875 63.00125 -23 64 C-22.34 64 -21.68 64 -21 64 C-21 62.35 -21 60.7 -21 59 C-19.68 59 -18.36 59 -17 59 C-16.71125 60.093125 -16.4225 61.18625 -16.125 62.3125 C-15.18106796 66.04013845 -15.18106796 66.04013845 -13 69 C-7.06666693 68.59080462 -3.61951506 67.81109992 1 64 C1 63.34 1 62.68 1 62 C0.47156494 61.77449463 -0.05687012 61.54898926 -0.60131836 61.31665039 C-24.74124776 50.86715974 -24.74124776 50.86715974 -30 38 C-31.00779805 26.59669599 -27.06521406 16.9766322 -20.1875 8.0625 C-14.56237181 2.07019634 -8.20125872 -1.09350116 0 0 Z " fill="#F6CB00" transform="translate(287,162)"/>
<path d="M0 0 C2.875 0.5 2.875 0.5 5.875 2.5 C8.02774948 2.19159401 8.02774948 2.19159401 9.875 1.5 C11.8121646 7.31149381 8.30033541 13.1642621 5.875 18.5 C5.400625 19.551875 4.92625 20.60375 4.4375 21.6875 C2.87932901 24.49220778 1.25241265 26.36852659 -1.125 28.5 C-0.465 28.5 0.195 28.5 0.875 28.5 C0.42303755 30.10597325 -0.03682327 31.70972508 -0.5 33.3125 C-0.75523438 34.20582031 -1.01046875 35.09914062 -1.2734375 36.01953125 C-2.125 38.5 -2.125 38.5 -4.125 41.5 C-4.16178058 47.67913792 -0.42700186 51.78990563 3.125 56.5 C3.69863281 57.28117187 4.27226562 58.06234375 4.86328125 58.8671875 C7.39257184 62.2895078 9.93366044 65.58852709 12.80859375 68.7265625 C14.875 71.5 14.875 71.5 15.14453125 74.2734375 C14.99371094 75.13195312 14.84289062 75.99046875 14.6875 76.875 C14.54957031 77.74898438 14.41164062 78.62296875 14.26953125 79.5234375 C14.13933594 80.17570312 14.00914062 80.82796875 13.875 81.5 C13.215 81.5 12.555 81.5 11.875 81.5 C11.38 83.48 11.38 83.48 10.875 85.5 C10.215 85.5 9.555 85.5 8.875 85.5 C8.875 86.16 8.875 86.82 8.875 87.5 C5.68890075 87.14598897 4.08433322 86.66972964 1.5625 84.625 C-0.125 82.5 -0.125 82.5 -0.125 79.5 C-1.115 79.17 -2.105 78.84 -3.125 78.5 C-4.73046875 76.50390625 -4.73046875 76.50390625 -6.3125 74.0625 C-6.84230469 73.25941406 -7.37210938 72.45632813 -7.91796875 71.62890625 C-9.125 69.5 -9.125 69.5 -9.125 67.5 C-8.465 67.5 -7.805 67.5 -7.125 67.5 C-7.125 66.84 -7.125 66.18 -7.125 65.5 C-10.14478656 65.76591607 -11.62397901 65.90795367 -14.125 67.5 C-16.13268328 71.1125882 -17.18051369 74.97674453 -18.3125 78.9375 C-18.93972488 81.04400474 -19.57859474 83.147086 -20.23046875 85.24609375 C-20.50012451 86.18122803 -20.76978027 87.1163623 -21.04760742 88.07983398 C-22.30532201 90.90506052 -23.47519287 91.95409435 -26.125 93.5 C-29.90060787 93.96043998 -30.86736778 93.67175481 -34.125 91.5 C-34.125 90.18 -34.125 88.86 -34.125 87.5 C-35.115 87.5 -36.105 87.5 -37.125 87.5 C-38.04576773 78.67250248 -35.37999561 71.89084607 -32.0625 63.8125 C-31.0983882 61.46047692 -30.14861609 59.10251333 -29.21484375 56.73828125 C-28.79066162 55.70743408 -28.36647949 54.67658691 -27.92944336 53.61450195 C-26.26014321 47.15159998 -28.53471039 41.96725168 -31.5625 36.3125 C-31.87509766 35.70986328 -32.18769531 35.10722656 -32.50976562 34.48632812 C-33.75594554 32.08618034 -35.0141334 29.69713578 -36.33984375 27.33984375 C-37.7197087 24.10642886 -37.24076282 20.97288459 -37.125 17.5 C-34.03690305 15.73537317 -32.89187864 15.5 -29.125 15.5 C-29.125 16.16 -29.125 16.82 -29.125 17.5 C-28.135 17.83 -27.145 18.16 -26.125 18.5 C-25.4375 20.5625 -25.4375 20.5625 -25.125 22.5 C-24.465 22.5 -23.805 22.5 -23.125 22.5 C-23.785 21.18 -24.445 19.86 -25.125 18.5 C-23.805 18.17 -22.485 17.84 -21.125 17.5 C-21.125 18.49 -21.125 19.48 -21.125 20.5 C-20.465 20.5 -19.805 20.5 -19.125 20.5 C-19.125 21.49 -19.125 22.48 -19.125 23.5 C-18.135 23.83 -17.145 24.16 -16.125 24.5 C-15.90884033 23.98614746 -15.69268066 23.47229492 -15.4699707 22.94287109 C-14.4697748 20.58224938 -13.45380072 18.22873057 -12.4375 15.875 C-12.09783203 15.06675781 -11.75816406 14.25851563 -11.40820312 13.42578125 C-5.98505494 0.95760879 -5.98505494 0.95760879 0 0 Z " fill="#F9CD00" transform="translate(127.125,193.5)"/>
<path d="M0 0 C0 0.66 0 1.32 0 2 C-0.66 2 -1.32 2 -2 2 C-1.34 2.99 -0.68 3.98 0 5 C-0.0625 7.0625 -0.0625 7.0625 -1 9 C-4.6617375 11.09242143 -7.84532871 11.19324053 -12 11 C-12 11.66 -12 12.32 -12 13 C-7.545 12.505 -7.545 12.505 -3 12 C-4.21427987 14.34498583 -5.30682391 15.7360131 -7.80908203 16.68896484 C-10.05084921 17.2582618 -12.29306902 17.74114718 -14.5625 18.1875 C-19.92613723 19.1530931 -19.92613723 19.1530931 -25 21 C-25.47574438 23.54024004 -25.84007547 26.00051464 -26.125 28.5625 C-26.21136719 29.27341797 -26.29773438 29.98433594 -26.38671875 30.71679688 C-26.59934783 32.47689312 -26.80072697 34.23834164 -27 36 C-25.66001953 35.51080078 -25.66001953 35.51080078 -24.29296875 35.01171875 C-21.38109014 34.11708463 -19.3160813 33.75483963 -16.3125 33.8125 C-15.56613281 33.81894531 -14.81976563 33.82539063 -14.05078125 33.83203125 C-12 34 -12 34 -9 35 C-9 35.99 -9 36.98 -9 38 C-10.98 38.495 -10.98 38.495 -13 39 C-11.68 39.33 -10.36 39.66 -9 40 C-9 40.99 -9 41.98 -9 43 C-10.98 43.495 -10.98 43.495 -13 44 C-13 44.33 -13 44.66 -13 45 C-12.01 45 -11.02 45 -10 45 C-10 47 -10 47 -11.0625 48.5 C-13.24793636 50.19195073 -15.29093492 50.78925122 -17.94921875 51.4609375 C-21.69378063 52.44522234 -25.33400354 53.7592012 -29 55 C-29.33 60.61 -29.66 66.22 -30 72 C-27.78645833 70.95833333 -25.57291667 69.91666667 -23.359375 68.875 C-21 68 -21 68 -17 68 C-17.33 68.99 -17.66 69.98 -18 71 C-16.68 71 -15.36 71 -14 71 C-14 70.34 -14 69.68 -14 69 C-12.35 69.33 -10.7 69.66 -9 70 C-9 70.66 -9 71.32 -9 72 C-14.38744379 75.05773837 -20.01448228 76.49829538 -26 78 C-22.13884041 77.60600412 -18.77861422 77.03252391 -15.25 75.4375 C-12 74 -12 74 -9 74 C-9.495 75.485 -9.495 75.485 -10 77 C-12.97 77.495 -12.97 77.495 -16 78 C-16 78.66 -16 79.32 -16 80 C-16.89203125 80.13277344 -17.7840625 80.26554687 -18.703125 80.40234375 C-20.45882812 80.66724609 -20.45882812 80.66724609 -22.25 80.9375 C-23.99023438 81.19853516 -23.99023438 81.19853516 -25.765625 81.46484375 C-28.23106961 81.8727736 -30.59424562 82.33901303 -33 83 C-32.34 84.32 -31.68 85.64 -31 87 C-30.20335937 86.65066406 -29.40671875 86.30132812 -28.5859375 85.94140625 C-27.52632812 85.48636719 -26.46671875 85.03132813 -25.375 84.5625 C-24.33085937 84.11003906 -23.28671875 83.65757812 -22.2109375 83.19140625 C-19.11314749 82.04198295 -16.26789946 81.42688777 -13 81 C-18.32185519 87.17335202 -24.29873185 88.29692299 -32.05859375 88.88671875 C-33.01958984 88.94279297 -33.01958984 88.94279297 -34 89 C-34 88.34 -34 87.68 -34 87 C-35.32 87 -36.64 87 -38 87 C-39.8125 84.8125 -39.8125 84.8125 -41 82 C-40.6875 79.1875 -40.6875 79.1875 -40 77 C-40.66 77 -41.32 77 -42 77 C-42 78.65 -42 80.3 -42 82 C-45.29200896 79.80532736 -45.4529915 79.61604183 -46.1875 76 C-48.80166781 60.40360899 -46.35338107 44.62087708 -44.37158203 29.10107422 C-44.02593275 26.21642434 -43.74374361 23.33591258 -43.49609375 20.44140625 C-43.42116699 19.60931641 -43.34624023 18.77722656 -43.26904297 17.91992188 C-43.13544319 16.39505256 -43.01507327 14.86894126 -42.91064453 13.34179688 C-42.45451115 8.42740403 -42.45451115 8.42740403 -40.27661133 6.37939453 C-36.10193537 3.8499662 -31.36246926 3.26860349 -26.625 2.3125 C-25.55185547 2.09118408 -24.47871094 1.86986816 -23.37304688 1.6418457 C-15.46338646 0.09412207 -8.06596717 -0.63902909 0 0 Z " fill="#F7CB00" transform="translate(189,188)"/>
<path d="M0 0 C1.953125 0.6484375 1.953125 0.6484375 4 2 C4.609375 4.6015625 4.609375 4.6015625 4.75 7.625 C4.80671875 8.62789062 4.8634375 9.63078125 4.921875 10.6640625 C4.94765625 11.43492187 4.9734375 12.20578125 5 13 C6.2375 13.061875 7.475 13.12375 8.75 13.1875 C15.99575245 13.96958122 22.96440434 16.97626956 29 21 C28.505 23.475 28.505 23.475 28 26 C22.97072733 27.95582826 17.9163419 28.73647093 12.609375 29.53515625 C10.02820505 29.86780788 10.02820505 29.86780788 8 31 C8.14109986 33.10448938 8.28804175 35.2085877 8.4375 37.3125 C8.51871094 38.48425781 8.59992188 39.65601563 8.68359375 40.86328125 C8.8867371 44.02590958 8.8867371 44.02590958 10 47 C10.12781786 49.67394964 10.04391871 52.32095857 10 55 C7.525 55.495 7.525 55.495 5 56 C4.24074219 55.02417969 3.48148437 54.04835938 2.69921875 53.04296875 C1.69541876 51.7577295 0.69150662 50.47257784 -0.3125 49.1875 C-0.81201172 48.54490234 -1.31152344 47.90230469 -1.82617188 47.24023438 C-2.31279297 46.61826172 -2.79941406 45.99628906 -3.30078125 45.35546875 C-3.74591064 44.78465576 -4.19104004 44.21384277 -4.6496582 43.62573242 C-5.9896552 41.94751126 -5.9896552 41.94751126 -7.66870117 40.4152832 C-9 39 -9 39 -9 37 C-13.96161136 38.32479482 -18.58180491 39.96747794 -23.3125 42 C-24.52550781 42.515625 -25.73851562 43.03125 -26.98828125 43.5625 C-30.03213682 44.80976614 -30.03213682 44.80976614 -32 47 C-35.625 46.625 -35.625 46.625 -39 46 C-37.45873646 42.14243754 -35.05481733 40.05723851 -31.9375 37.375 C-28.48348875 34.56907909 -28.48348875 34.56907909 -26 31 C-25.34 31 -24.68 31 -24 31 C-24 30.34 -24 29.68 -24 29 C-22.70766393 27.62689293 -21.37562854 26.28965176 -20 25 C-20.28875 24.443125 -20.5775 23.88625 -20.875 23.3125 C-22 21 -22 21 -22.9375 18.3125 C-23.288125 17.549375 -23.63875 16.78625 -24 16 C-24.99 15.67 -25.98 15.34 -27 15 C-27.625 12.6875 -27.625 12.6875 -28 10 C-27.34 9.01 -26.68 8.02 -26 7 C-22.31136044 7.45167015 -18.93130928 8.02131781 -15.375 9.125 C-11.83661028 10.0423603 -10.41072732 10.1333947 -7 9 C-4.9033993 6.95838885 -4.9033993 6.95838885 -3.1875 4.4375 C-2.28064453 3.19806641 -2.28064453 3.19806641 -1.35546875 1.93359375 C-0.68451172 0.97646484 -0.68451172 0.97646484 0 0 Z " fill="#F4C900" transform="translate(389,205)"/>
<path d="M0 0 C-0.33 0.66 -0.66 1.32 -1 2 C-0.34 2 0.32 2 1 2 C1.33 3.32 1.66 4.64 2 6 C-4.45716958 7.8449056 -10.43122908 9.18959031 -17 7 C-19.76325936 7.33170213 -19.76325936 7.33170213 -23 8.0625 C-23.93537598 8.25851807 -23.93537598 8.25851807 -24.88964844 8.45849609 C-27.26227688 8.96122785 -29.63108852 9.48002651 -32 10 C-33.08861328 10.23734863 -34.17722656 10.47469727 -35.29882812 10.71923828 C-41.31121517 12.03271109 -47.32136208 13.35634764 -53.328125 14.6953125 C-54.3480957 14.92234863 -55.36806641 15.14938477 -56.41894531 15.38330078 C-59.09302903 15.98261848 -59.09302903 15.98261848 -62 17 C-61.34 17.33 -60.68 17.66 -60 18 C-60.495 19.485 -60.495 19.485 -61 21 C-62.92578125 21.765625 -62.92578125 21.765625 -65.3125 22.25 C-66.09238281 22.42015625 -66.87226563 22.5903125 -67.67578125 22.765625 C-70.07651867 23.00771617 -71.71809588 22.7310448 -74 22 C-74 21.67 -74 21.34 -74 21 C-74.66 21 -75.32 21 -76 21 C-75.505 22.485 -75.505 22.485 -75 24 C-78.3 24.66 -81.6 25.32 -85 26 C-85 25.34 -85 24.68 -85 24 C-85.99 24 -86.98 24 -88 24 C-87.505 25.485 -87.505 25.485 -87 27 C-93.2322365 29.46937673 -99.51292846 31.3186083 -106 33 C-106 32.01 -106 31.02 -106 30 C-113.92 32.475 -113.92 32.475 -122 35 C-122 35.99 -122 36.98 -122 38 C-123.98 38.495 -123.98 38.495 -126 39 C-126 38.01 -126 37.02 -126 36 C-126.66 36 -127.32 36 -128 36 C-128 35.34 -128 34.68 -128 34 C-128.66 34.66 -129.32 35.32 -130 36 C-132.22189824 38.22189824 -134.08482708 38.92598892 -137 40 C-136.34 40.66 -135.68 41.32 -135 42 C-137.97 42.66 -140.94 43.32 -144 44 C-144.33 43.34 -144.66 42.68 -145 42 C-145.99 41.67 -146.98 41.34 -148 41 C-145.525 40.505 -145.525 40.505 -143 40 C-143 39.01 -143 38.02 -143 37 C-122.50140439 28.3882995 -101.47642022 21.70720333 -80 16 C-78.69653837 15.6500233 -77.39315148 15.29976812 -76.08984375 14.94921875 C-73.60920836 14.28480865 -71.12746483 13.62451946 -68.64453125 12.96875 C-66.18045597 12.31377608 -63.7195517 11.64677288 -61.26171875 10.96875 C-53.75191016 8.90998627 -46.25282171 7.1809166 -38.60546875 5.71484375 C-35.27489499 5.05450247 -31.98706212 4.29901567 -28.6875 3.5 C-23.29801414 2.23977196 -17.8891063 1.19744104 -12.4375 0.25 C-11.66301514 0.11013672 -10.88853027 -0.02972656 -10.09057617 -0.17382812 C-6.39403155 -0.79513713 -3.58561005 -1.07752537 0 0 Z " fill="#DEB700" transform="translate(261,263)"/>
<path d="M0 0 C0.66 0 1.32 0 2 0 C2.66 2.31 3.32 4.62 4 7 C4.66 7 5.32 7 6 7 C9.89521002 16.39023844 10.43050404 26.33660834 7 36 C5.24472453 39.82237639 3.41934219 43.55259129 1 47 C-0.485 47.495 -0.485 47.495 -2 48 C-2.65239158 46.60721983 -3.29660552 45.21060788 -3.9375 43.8125 C-4.29714844 43.03519531 -4.65679687 42.25789063 -5.02734375 41.45703125 C-9.10526587 31.15577416 -7.63627311 17.439917 -4.01171875 7.2109375 C-1.5334507 1.5334507 -1.5334507 1.5334507 0 0 Z " fill="#070500" transform="translate(330,170)"/>
<path d="M0 0 C0.495 2.475 0.495 2.475 1 5 C1.99 5.33 2.98 5.66 4 6 C2.35 6.33 0.7 6.66 -1 7 C-1 7.99 -1 8.98 -1 10 C-1.66 10 -2.32 10 -3 10 C-3 9.34 -3 8.68 -3 8 C-5.64 8.33 -8.28 8.66 -11 9 C-11 8.34 -11 7.68 -11 7 C-13.77119784 8.7058258 -13.77119784 8.7058258 -15 10 C-34.99012517 13.76187795 -34.99012517 13.76187795 -40.5625 10.5 C-41.036875 10.005 -41.51125 9.51 -42 9 C-42.33 10.65 -42.66 12.3 -43 14 C-50.50769231 14.36923077 -50.50769231 14.36923077 -53 12.5 C-53.495 11.7575 -53.495 11.7575 -54 11 C-53.505 12.98 -53.505 12.98 -53 15 C-56.63 15.66 -60.26 16.32 -64 17 C-64 16.34 -64 15.68 -64 15 C-63.34 14.67 -62.68 14.34 -62 14 C-62 13.34 -62 12.68 -62 12 C-61.67 11.67 -61.34 11.34 -61 11 C-61.97348389 11.18175781 -62.94696777 11.36351562 -63.94995117 11.55078125 C-67.57396079 12.22619021 -71.19903889 12.89570503 -74.82446289 13.56347656 C-76.39116536 13.85289324 -77.95757656 14.14389141 -79.52368164 14.43652344 C-81.77935627 14.85771641 -84.03602926 15.27314522 -86.29296875 15.6875 C-87.33701118 15.88436401 -87.33701118 15.88436401 -88.40214539 16.08520508 C-91.98011398 16.73611689 -95.36224428 17.14785121 -99 17 C-96.02340639 15.3617532 -93.31152041 14.51245066 -89.984375 13.8515625 C-88.99219971 13.65272461 -88.00002441 13.45388672 -86.9777832 13.24902344 C-85.91261475 13.0430957 -84.84744629 12.83716797 -83.75 12.625 C-82.64551514 12.40875977 -81.54103027 12.19251953 -80.40307617 11.96972656 C-47.12276025 5.53249156 -47.12276025 5.53249156 -32 5 C-32 5.33 -32 5.66 -32 6 C-28.87319182 5.76635933 -25.74691894 5.52775538 -22.62109375 5.28125 C-20.3225053 5.10271886 -18.02304904 4.93479231 -15.72265625 4.78125 C-14.74167969 4.7090625 -13.76070313 4.636875 -12.75 4.5625 C-11.85796875 4.50191406 -10.9659375 4.44132812 -10.046875 4.37890625 C-9.37140625 4.25386719 -8.6959375 4.12882812 -8 4 C-7.67 3.34 -7.34 2.68 -7 2 C-8.32 2.33 -9.64 2.66 -11 3 C-11 2.34 -11 1.68 -11 1 C-7.27569643 0.30710631 -3.78916254 -0.11144596 0 0 Z " fill="#7B6500" transform="translate(338,269)"/>
<path d="M0 0 C0.69287109 0.00451172 1.38574219 0.00902344 2.09960938 0.01367188 C3.79561068 0.02536844 5.49156703 0.04330076 7.1875 0.0625 C3.89328667 1.93583577 0.84235175 2.63424635 -2.875 3.3125 C-10.63887633 4.78161455 -18.34958789 6.47249991 -26.0625 8.1875 C-27.86666382 8.58630371 -27.86666382 8.58630371 -29.70727539 8.99316406 C-30.84028076 9.24549805 -31.97328613 9.49783203 -33.140625 9.7578125 C-34.1605957 9.98484863 -35.18056641 10.21188477 -36.23144531 10.44580078 C-38.90552903 11.04511848 -38.90552903 11.04511848 -41.8125 12.0625 C-41.1525 12.3925 -40.4925 12.7225 -39.8125 13.0625 C-40.1425 14.0525 -40.4725 15.0425 -40.8125 16.0625 C-42.73828125 16.828125 -42.73828125 16.828125 -45.125 17.3125 C-45.90488281 17.48265625 -46.68476563 17.6528125 -47.48828125 17.828125 C-49.88901867 18.07021617 -51.53059588 17.7935448 -53.8125 17.0625 C-53.8125 16.7325 -53.8125 16.4025 -53.8125 16.0625 C-54.4725 16.0625 -55.1325 16.0625 -55.8125 16.0625 C-55.3175 17.5475 -55.3175 17.5475 -54.8125 19.0625 C-58.1125 19.7225 -61.4125 20.3825 -64.8125 21.0625 C-64.8125 20.4025 -64.8125 19.7425 -64.8125 19.0625 C-65.8025 19.0625 -66.7925 19.0625 -67.8125 19.0625 C-67.4825 20.0525 -67.1525 21.0425 -66.8125 22.0625 C-73.0447365 24.53187673 -79.32542846 26.3811083 -85.8125 28.0625 C-85.8125 27.0725 -85.8125 26.0825 -85.8125 25.0625 C-88.7825 25.3925 -91.7525 25.7225 -94.8125 26.0625 C-94.8125 25.4025 -94.8125 24.7425 -94.8125 24.0625 C-85.13862313 20.52173461 -85.13862313 20.52173461 -80.8125 21.0625 C-80.4825 21.3925 -80.1525 21.7225 -79.8125 22.0625 C-78.8225 21.7325 -77.8325 21.4025 -76.8125 21.0625 C-77.8025 20.7325 -78.7925 20.4025 -79.8125 20.0625 C-76.56692788 17.89878525 -73.94088156 17.14307408 -70.1875 16.125 C-66.07005947 14.99090538 -62.01665784 13.8252623 -58 12.375 C-54.32837432 11.11010102 -50.81842217 10.57407172 -46.953125 10.2734375 C-41.94161445 9.77960252 -37.10637751 8.40952856 -32.25 7.125 C-31.59064453 6.95548828 -30.93128906 6.78597656 -30.25195312 6.61132812 C-26.87940983 5.71989206 -23.91615788 4.62483794 -20.8125 3.0625 C-18.8125 3.0625 -16.8125 3.0625 -14.8125 3.0625 C-14.1525 2.4025 -13.4925 1.7425 -12.8125 1.0625 C-8.59379229 -0.16377884 -4.35470445 -0.05417336 0 0 Z " fill="#675500" transform="translate(240.8125,267.9375)"/>
<path d="M0 0 C-0.33 0.66 -0.66 1.32 -1 2 C-0.34 2 0.32 2 1 2 C1.495 3.98 1.495 3.98 2 6 C-3.57067277 7.59162079 -8.21101581 8.20674944 -14 8 C-13.67 7.34 -13.34 6.68 -13 6 C-15.37531394 5.9456035 -17.74935883 5.90614136 -20.125 5.875 C-20.79015625 5.85824219 -21.4553125 5.84148437 -22.140625 5.82421875 C-26.51209439 5.78136121 -29.94063795 6.41155398 -34 8 C-37 9 -37 9 -40.4375 9.4375 C-43.48880759 9.91928541 -45.39649931 10.43789959 -48 12 C-48 11.01 -48 10.02 -48 9 C-48.66 8.67 -49.32 8.34 -50 8 C-49.06800781 7.81824219 -48.13601562 7.63648438 -47.17578125 7.44921875 C-40.98514992 6.22861904 -34.82187786 4.98260539 -28.6875 3.5 C-23.29801414 2.23977196 -17.8891063 1.19744104 -12.4375 0.25 C-11.27577271 0.04020508 -11.27577271 0.04020508 -10.09057617 -0.17382812 C-6.39403155 -0.79513713 -3.58561005 -1.07752537 0 0 Z " fill="#F0C500" transform="translate(261,263)"/>
<path d="M0 0 C0 0.99 0 1.98 0 3 C-2.20795422 3.48091058 -4.416381 3.95965179 -6.625 4.4375 C-7.85476562 4.70433594 -9.08453125 4.97117187 -10.3515625 5.24609375 C-19.66060606 7.16969697 -19.66060606 7.16969697 -22 6 C-22.33 6.66 -22.66 7.32 -23 8 C-24.890625 8.5625 -24.890625 8.5625 -27.25 9 C-29.77727191 9.47492358 -32.00990808 10.00396323 -34.40234375 10.9609375 C-37.3333135 12.1333254 -40.24532416 12.88348496 -43.3125 13.625 C-44.38113281 13.88539063 -45.44976562 14.14578125 -46.55078125 14.4140625 C-47.35902344 14.60742188 -48.16726562 14.80078125 -49 15 C-48.01 15 -47.02 15 -46 15 C-44.68 15.33 -43.36 15.66 -42 16 C-45.96 16.99 -49.92 17.98 -54 19 C-53.67 18.01 -53.34 17.02 -53 16 C-53.66 16 -54.32 16 -55 16 C-55 15.34 -55 14.68 -55 14 C-43.22643044 9.97653926 -31.42027779 6.03071518 -19.21875 3.50390625 C-16.55019598 2.89784381 -13.94126349 2.13465612 -11.3125 1.375 C-7.43044829 0.28998836 -4.06317022 -0.32944623 0 0 Z " fill="#DFB700" transform="translate(213,272)"/>
<path d="M0 0 C0.495 0.99 0.495 0.99 1 2 C-0.98 2.99 -2.96 3.98 -5 5 C-4.67 5.99 -4.34 6.98 -4 8 C-10.2322365 10.46937673 -16.51292846 12.3186083 -23 14 C-23 13.01 -23 12.02 -23 11 C-27.455 11.495 -27.455 11.495 -32 12 C-32 11.34 -32 10.68 -32 10 C-22.32612313 6.45923461 -22.32612313 6.45923461 -18 7 C-17.67 7.33 -17.34 7.66 -17 8 C-16.01 7.67 -15.02 7.34 -14 7 C-14.99 6.67 -15.98 6.34 -17 6 C-13.62787619 3.75191746 -10.7125039 2.94839557 -6.8125 1.875 C-5.83120117 1.60236328 -5.83120117 1.60236328 -4.83007812 1.32421875 C-3.22137657 0.87800956 -1.61085869 0.43835785 0 0 Z " fill="#5B4B00" transform="translate(178,282)"/>
<path d="M0 0 C-0.33 0.99 -0.66 1.98 -1 3 C-2.92578125 3.765625 -2.92578125 3.765625 -5.3125 4.25 C-6.48232422 4.50523437 -6.48232422 4.50523437 -7.67578125 4.765625 C-10.07651867 5.00771617 -11.71809588 4.7310448 -14 4 C-14 3.67 -14 3.34 -14 3 C-14.66 3 -15.32 3 -16 3 C-15.67 3.99 -15.34 4.98 -15 6 C-18.3 6.66 -21.6 7.32 -25 8 C-25 7.34 -25 6.68 -25 6 C-26.32 5.67 -27.64 5.34 -29 5 C-26.69 4.34 -24.38 3.68 -22 3 C-22 2.34 -22 1.68 -22 1 C-14.76813073 -0.54314751 -7.27993529 -1.77079507 0 0 Z " fill="#D1AC00" transform="translate(201,281)"/>
<path d="M0 0 C0 0.33 0 0.66 0 1 C-5.94 1.495 -5.94 1.495 -12 2 C-12 2.66 -12 3.32 -12 4 C-11.01 4 -10.02 4 -9 4 C-8.505 5.98 -8.505 5.98 -8 8 C-11.63 8.66 -15.26 9.32 -19 10 C-19 9.34 -19 8.68 -19 8 C-18.34 7.67 -17.68 7.34 -17 7 C-17 6.34 -17 5.68 -17 5 C-16.67 4.67 -16.34 4.34 -16 4 C-16.97348389 4.18175781 -17.94696777 4.36351562 -18.94995117 4.55078125 C-22.57396079 5.22619021 -26.19903889 5.89570503 -29.82446289 6.56347656 C-31.39116536 6.85289324 -32.95757656 7.14389141 -34.52368164 7.43652344 C-36.77935627 7.85771641 -39.03602926 8.27314522 -41.29296875 8.6875 C-42.33701118 8.88436401 -42.33701118 8.88436401 -43.40214539 9.08520508 C-46.98011398 9.73611689 -50.36224428 10.14785121 -54 10 C-51.00083342 8.34501722 -48.26997874 7.50859246 -44.9140625 6.8515625 C-43.91068848 6.65256348 -42.90731445 6.45356445 -41.87353516 6.24853516 C-40.26551025 5.93988525 -40.26551025 5.93988525 -38.625 5.625 C-37.52333496 5.41020996 -36.42166992 5.19541992 -35.28662109 4.97412109 C-31.85899879 4.30939686 -28.42957612 3.6545591 -25 3 C-23.91847656 2.78988281 -22.83695312 2.57976562 -21.72265625 2.36328125 C-18.6917004 1.7750735 -15.65888182 1.19790218 -12.625 0.625 C-11.69896973 0.44533691 -10.77293945 0.26567383 -9.81884766 0.08056641 C-8.96339355 -0.07750488 -8.10793945 -0.23557617 -7.2265625 -0.3984375 C-6.47971191 -0.53942871 -5.73286133 -0.68041992 -4.96337891 -0.82568359 C-3 -1 -3 -1 0 0 Z " fill="#5A4A00" transform="translate(293,276)"/>
<path d="M0 0 C-0.99 0.33 -1.98 0.66 -3 1 C-3 1.66 -3 2.32 -3 3 C-5.65398078 4.76932052 -7.0348374 5.30812873 -10 6 C-10.33 6.33 -10.66 6.66 -11 7 C-13.05051929 7.56616627 -15.11615988 8.07801706 -17.1875 8.5625 C-18.31542969 8.83191406 -19.44335938 9.10132813 -20.60546875 9.37890625 C-23.82820243 9.96856638 -26.73380511 10.11399466 -30 10 C-28.13497412 7.37200898 -26.69589209 6.13634249 -23.5078125 5.51171875 C-21.0035728 5.27406427 -18.51346021 5.0959336 -16 5 C-16 4.01 -16 3.02 -16 2 C-13.71022755 1.47090114 -11.41810812 0.95194981 -9.125 0.4375 C-7.84882813 0.14746094 -6.57265625 -0.14257812 -5.2578125 -0.44140625 C-2 -1 -2 -1 0 0 Z " fill="#DCB500" transform="translate(279,280)"/>
<path d="M0 0 C-0.33 0.99 -0.66 1.98 -1 3 C-3.97 3 -6.94 3 -10 3 C-9.34 2.34 -8.68 1.68 -8 1 C-8.99 0.67 -9.98 0.34 -11 0 C-11 0.66 -11 1.32 -11 2 C-11.7425 2.28875 -12.485 2.5775 -13.25 2.875 C-15.90160642 3.89185856 -15.90160642 3.89185856 -17.875 5.0625 C-20.84146927 6.37123644 -23.79734198 6.63046254 -27 7 C-27 6.34 -27 5.68 -27 5 C-27.99 4.67 -28.98 4.34 -30 4 C-26.52758821 2.01822652 -23.08286042 1.21062445 -19.1875 0.375 C-18.00542969 0.11460937 -16.82335937 -0.14578125 -15.60546875 -0.4140625 C-10.22591917 -1.28831216 -5.29988708 -1.28482111 0 0 Z " fill="#C9A600" transform="translate(228,276)"/>
<path d="M0 0 C3.625 0.375 3.625 0.375 7 1 C7 3.64 7 6.28 7 9 C4.69 9.66 2.38 10.32 0 11 C-1.32 9.35 -2.64 7.7 -4 6 C-2.84826645 3.53199953 -1.95216435 1.95216435 0 0 Z " fill="#090700" transform="translate(381,223)"/>
<path d="M0 0 C0 0.33 0 0.66 0 1 C-1.76949612 1.50471197 -3.54065223 2.00360685 -5.3125 2.5 C-6.79169922 2.91765625 -6.79169922 2.91765625 -8.30078125 3.34375 C-11 4 -11 4 -14 4 C-14 4.66 -14 5.32 -14 6 C-12.35 5.67 -10.7 5.34 -9 5 C-11.28814723 7.28814723 -12.80751622 7.75451161 -15.875 8.6875 C-16.73867187 8.95949219 -17.60234375 9.23148437 -18.4921875 9.51171875 C-21.08694932 10.01692938 -22.530785 9.85561171 -25 9 C-24.01 8.67 -23.02 8.34 -22 8 C-22.33 7.34 -22.66 6.68 -23 6 C-22 4 -22 4 -18.61328125 2.67578125 C-17.1823528 2.21302993 -15.74859086 1.75897289 -14.3125 1.3125 C-13.60416016 1.07466797 -12.89582031 0.83683594 -12.16601562 0.59179688 C-7.73826223 -0.80235262 -4.61617815 -1.19947936 0 0 Z " fill="#DDB600" transform="translate(160,288)"/>
<path d="M0 0 C0.66 0.33 1.32 0.66 2 1 C2 1.99 2 2.98 2 4 C0.948125 4.226875 -0.10375 4.45375 -1.1875 4.6875 C-7.32553288 6.20265406 -13.13966899 8.65944097 -19 11 C-20.125 6.25 -20.125 6.25 -19 4 C-16.28553021 3.68758545 -13.66090639 3.48663408 -10.9375 3.375 C-10.17888672 3.33632813 -9.42027344 3.29765625 -8.63867188 3.2578125 C-6.75952805 3.16326438 -4.87979664 3.08053244 -3 3 C-3 2.34 -3 1.68 -3 1 C-2.01 0.67 -1.02 0.34 0 0 Z " fill="#1B1600" transform="translate(176,265)"/>
<path d="M0 0 C0.66 0.99 1.32 1.98 2 3 C-0.31 2.67 -2.62 2.34 -5 2 C-5.33 3.65 -5.66 5.3 -6 7 C-8.64 7 -11.28 7 -14 7 C-14.33 6.34 -14.66 5.68 -15 5 C-17.52733235 4.34444881 -17.52733235 4.34444881 -20 4 C-20 3.34 -20 2.68 -20 2 C-6.20689655 -0.57471264 -6.20689655 -0.57471264 0 0 Z " fill="#ECC300" transform="translate(301,276)"/>
<path d="M0 0 C0 0.66 0 1.32 0 2 C-0.66 2 -1.32 2 -2 2 C-2 2.66 -2 3.32 -2 4 C-5.3 4.33 -8.6 4.66 -12 5 C-12 5.66 -12 6.32 -12 7 C-13.65 6.67 -15.3 6.34 -17 6 C-17 4.68 -17 3.36 -17 2 C-14.54316882 1.47097431 -12.08497874 0.95149191 -9.625 0.4375 C-8.92632812 0.28603516 -8.22765625 0.13457031 -7.5078125 -0.02148438 C-2.2265625 -1.11328125 -2.2265625 -1.11328125 0 0 Z " fill="#E9C000" transform="translate(246,270)"/>
<path d="M0 0 C0 0.99 0 1.98 0 3 C-2.20795422 3.48091058 -4.416381 3.95965179 -6.625 4.4375 C-7.85476562 4.70433594 -9.08453125 4.97117187 -10.3515625 5.24609375 C-12.15753906 5.61927734 -12.15753906 5.61927734 -14 6 C-15.65128906 6.35771484 -15.65128906 6.35771484 -17.3359375 6.72265625 C-18.65464844 6.85994141 -18.65464844 6.85994141 -20 7 C-20.66 6.34 -21.32 5.68 -22 5 C-14.89146377 1.67260006 -7.92986948 -0.40665997 0 0 Z " fill="#EFC400" transform="translate(213,272)"/>
<path d="M0 0 C1.50433594 0.01353516 1.50433594 0.01353516 3.0390625 0.02734375 C3.80992187 0.03894531 4.58078125 0.05054688 5.375 0.0625 C5.705 1.3825 6.035 2.7025 6.375 4.0625 C0.80432723 5.65412079 -3.83601581 6.26924944 -9.625 6.0625 C-8.305 5.7325 -6.985 5.4025 -5.625 5.0625 C-5.625 4.4025 -5.625 3.7425 -5.625 3.0625 C-6.285 3.0625 -6.945 3.0625 -7.625 3.0625 C-7.625 2.4025 -7.625 1.7425 -7.625 1.0625 C-4.98041621 -0.25979189 -2.94738699 -0.03427194 0 0 Z " fill="#B99800" transform="translate(256.625,264.9375)"/>
<path d="M0 0 C0.33 0.99 0.66 1.98 1 3 C-2.6206284 3.89381762 -6.24695562 4.76182215 -9.875 5.625 C-10.90753906 5.88023437 -11.94007813 6.13546875 -13.00390625 6.3984375 C-13.99003906 6.63046875 -14.97617188 6.8625 -15.9921875 7.1015625 C-16.90339355 7.32150879 -17.81459961 7.54145508 -18.75341797 7.76806641 C-19.86547607 7.88287354 -19.86547607 7.88287354 -21 8 C-21.66 7.34 -22.32 6.68 -23 6 C-20.29293656 5.18305769 -17.58448604 4.37133506 -14.875 3.5625 C-13.73417969 3.21735352 -13.73417969 3.21735352 -12.5703125 2.86523438 C-8.39566417 1.62363638 -4.32620837 0.60124621 0 0 Z " fill="#A08400" transform="translate(212,296)"/>
<path d="M0 0 C4.66596169 1.38341671 6.57686597 3.52115255 9.375 7.4375 C10.08398438 8.40558594 10.79296875 9.37367188 11.5234375 10.37109375 C12.01070312 11.23863281 12.49796875 12.10617187 13 13 C12.67 13.99 12.34 14.98 12 16 C11.34 16 10.68 16 10 16 C9.34 15.34 8.68 14.68 8 14 C7.34 13.67 6.68 13.34 6 13 C5.896875 12.278125 5.79375 11.55625 5.6875 10.8125 C4.98215669 7.92700465 4.33321449 6.98511661 2.4375 4.8125 C0 2 0 2 0 0 Z " fill="#E5BD00" transform="translate(125,247)"/>
<path d="M0 0 C0 0.33 0 0.66 0 1 C-5.94 1.495 -5.94 1.495 -12 2 C-12 2.66 -12 3.32 -12 4 C-11.01 4 -10.02 4 -9 4 C-8.67 5.32 -8.34 6.64 -8 8 C-11.63 8.66 -15.26 9.32 -19 10 C-19 9.34 -19 8.68 -19 8 C-18.34 7.67 -17.68 7.34 -17 7 C-17 6.34 -17 5.68 -17 5 C-13.99201734 0.6247525 -10.26127704 0.1243002 -5.33984375 -0.80078125 C-3 -1 -3 -1 0 0 Z " fill="#9A7F00" transform="translate(293,276)"/>
<path d="M0 0 C0 0.33 0 0.66 0 1 C-4.39388136 2.00871032 -8.7903952 3.00544344 -13.1875 4 C-14.43337891 4.28617187 -15.67925781 4.57234375 -16.96289062 4.8671875 C-18.16494141 5.13789063 -19.36699219 5.40859375 -20.60546875 5.6875 C-22.26292114 6.06455078 -22.26292114 6.06455078 -23.95385742 6.44921875 C-26.7228135 6.94988116 -29.19631111 7.10950127 -32 7 C-30.36787627 5.05600549 -29.42445974 4.09697395 -26.9140625 3.5234375 C-26.15867188 3.47445313 -25.40328125 3.42546875 -24.625 3.375 C-23.42423828 3.27638672 -23.42423828 3.27638672 -22.19921875 3.17578125 C-21.11060547 3.08876953 -21.11060547 3.08876953 -20 3 C-17.67964947 2.60384259 -15.43563113 2.12075063 -13.16796875 1.4921875 C-8.61731406 0.2566369 -4.71690766 -0.19653782 0 0 Z " fill="#927800" transform="translate(216,275)"/>
<path d="M0 0 C-5.31731587 3.79601297 -10.38836707 6.47802898 -17 7 C-19.265625 6.5390625 -19.265625 6.5390625 -21 6 C-20.35933594 5.74605469 -19.71867188 5.49210937 -19.05859375 5.23046875 C-17.76115234 4.71419922 -17.76115234 4.71419922 -16.4375 4.1875 C-15.52613281 3.8265625 -14.61476562 3.465625 -13.67578125 3.09375 C-11.45414595 2.1856363 -9.29532694 1.20883033 -7.125 0.1875 C-3.8542803 -1.05537349 -3.15139514 -1.00271664 0 0 Z " fill="#DEB700" transform="translate(176,270)"/>
<path d="M0 0 C-1 3 -1 3 -3 4 C-2.67 4.66 -2.34 5.32 -2 6 C-5.08809695 7.76462683 -6.23312136 8 -10 8 C-10 6.35 -10 4.7 -10 3 C-6.27034861 0.96564469 -4.33094958 0 0 0 Z " fill="#DFB700" transform="translate(172,256)"/>
<path d="M0 0 C1.98 0 3.96 0 6 0 C6 0.66 6 1.32 6 2 C6.66 2.33 7.32 2.66 8 3 C1.88595404 4.85743168 -3.58518742 6.42765417 -10 6 C-9.01 5.67 -8.02 5.34 -7 5 C-7 4.34 -7 3.68 -7 3 C-5.68 3 -4.36 3 -3 3 C-2.67 2.34 -2.34 1.68 -2 1 C-1.34 1.33 -0.68 1.66 0 2 C0 1.34 0 0.68 0 0 Z " fill="#B09100" transform="translate(353,275)"/>
<path d="M0 0 C0 2 0 2 -1.125 3.5625 C-3.63946978 5.49026016 -5.89545967 5.65505107 -9 6 C-9.33 5.34 -9.66 4.68 -10 4 C-10.556875 4.350625 -11.11375 4.70125 -11.6875 5.0625 C-14.53886783 6.21845993 -16.08517222 5.80967438 -19 5 C-18.46375 4.896875 -17.9275 4.79375 -17.375 4.6875 C-14.84619775 4.04033592 -14.84619775 4.04033592 -12.125 2.5 C-8.04644565 0.54229391 -4.49391737 0 0 0 Z " fill="#C19F00" transform="translate(179,233)"/>
<path d="M0 0 C1.65 0 3.3 0 5 0 C5 1.32 5 2.64 5 4 C5.66 4 6.32 4 7 4 C7.33 6.64 7.66 9.28 8 12 C8.66 12 9.32 12 10 12 C10 13.65 10 15.3 10 17 C9.01 17 8.02 17 7 17 C6.34 17.66 5.68 18.32 5 19 C5.01160156 18.18015625 5.02320313 17.3603125 5.03515625 16.515625 C5.04417969 15.43796875 5.05320313 14.3603125 5.0625 13.25 C5.07410156 12.18265625 5.08570313 11.1153125 5.09765625 10.015625 C5.01510087 7.46631499 4.74617558 5.42066409 4 3 C3.34 3 2.68 3 2 3 C2 2.34 2 1.68 2 1 C1.34 0.67 0.68 0.34 0 0 Z " fill="#ECC200" transform="translate(199,206)"/>
<path d="M0 0 C0.33 0.99 0.66 1.98 1 3 C0.24074219 3.06058594 -0.51851563 3.12117188 -1.30078125 3.18359375 C-2.29464844 3.26738281 -3.28851563 3.35117187 -4.3125 3.4375 C-5.29863281 3.51871094 -6.28476562 3.59992188 -7.30078125 3.68359375 C-10.09375599 3.91812559 -10.09375599 3.91812559 -13 5 C-13.99 4.34 -14.98 3.68 -16 3 C-13.2403139 1.16020927 -11.70258118 0.51676779 -8.5625 -0.1875 C-7.41974609 -0.45626953 -7.41974609 -0.45626953 -6.25390625 -0.73046875 C-3.8102924 -1.022686 -2.27360942 -0.94442237 0 0 Z " fill="#FACE00" transform="translate(263,283)"/>
<path d="M0 0 C0 0.66 0 1.32 0 2 C0.66 2 1.32 2 2 2 C2 2.99 2 3.98 2 5 C-2.455 6.485 -2.455 6.485 -7 8 C-7.99 7.01 -8.98 6.02 -10 5 C-8.02 4.34 -6.04 3.68 -4 3 C-4 2.34 -4 1.68 -4 1 C-2 0 -2 0 0 0 Z " fill="#4C3E00" transform="translate(133,297)"/>
<path d="M0 0 C0 0.99 0 1.98 0 3 C0.3062434 4.33981486 0.63451555 5.67511887 1 7 C-0.32 7.33 -1.64 7.66 -3 8 C-3 7.01 -3 6.02 -3 5 C-3.66 5 -4.32 5 -5 5 C-5 4.34 -5 3.68 -5 3 C-6.32 3.33 -7.64 3.66 -9 4 C-9.33 3.34 -9.66 2.68 -10 2 C-3.375 -1.125 -3.375 -1.125 0 0 Z " fill="#C19F00" transform="translate(138,294)"/>
<path d="M0 0 C0 0.66 0 1.32 0 2 C-5.07476794 3.26305335 -9.72796354 4.27036084 -15 4 C-12.59594933 1.01897717 -11.29438525 0.06833943 -7.5 -0.8125 C-4.60071148 -0.96781903 -2.68958436 -0.96825037 0 0 Z " fill="#D3AE00" transform="translate(264,286)"/>
<path d="M0 0 C-0.5625 1.9375 -0.5625 1.9375 -2 4 C-5.625 4.75 -5.625 4.75 -9 5 C-9 4.34 -9 3.68 -9 3 C-9.99 2.67 -10.98 2.34 -12 2 C-7.72170329 -0.29194467 -4.74957752 -1.52664992 0 0 Z " fill="#ECC200" transform="translate(210,278)"/>
<path d="M0 0 C-0.33 0.99 -0.66 1.98 -1 3 C-2.98 3.33 -4.96 3.66 -7 4 C-7 4.66 -7 5.32 -7 6 C-10.3 6.33 -13.6 6.66 -17 7 C-15.43584273 3.87168546 -12.82613503 3.58337548 -9.625 2.375 C-7.88089844 1.70597656 -7.88089844 1.70597656 -6.1015625 1.0234375 C-3 0 -3 0 0 0 Z " fill="#E8BF00" transform="translate(180,262)"/>
<path d="M0 0 C0.33 1.98 0.66 3.96 1 6 C-1.64 6 -4.28 6 -7 6 C-7 4.68 -7 3.36 -7 2 C-8.32 2.33 -9.64 2.66 -11 3 C-11 2.34 -11 1.68 -11 1 C-7.27569643 0.30710631 -3.78916254 -0.11144596 0 0 Z " fill="#B89700" transform="translate(338,269)"/>
<path d="M0 0 C2 1 2 1 2.6328125 2.84765625 C2.79523438 3.57855469 2.95765625 4.30945313 3.125 5.0625 C3.29257813 5.79597656 3.46015625 6.52945312 3.6328125 7.28515625 C3.75398437 7.85105469 3.87515625 8.41695313 4 9 C2.68 9.33 1.36 9.66 0 10 C-1.76462683 6.91190305 -2 5.76687864 -2 2 C-1.34 2 -0.68 2 0 2 C0 1.34 0 0.68 0 0 Z " fill="#D2AD00" transform="translate(195,256)"/>
<path d="M0 0 C0.33 0.99 0.66 1.98 1 3 C1.66 3 2.32 3 3 3 C3.33 2.34 3.66 1.68 4 1 C5.32 1.33 6.64 1.66 8 2 C7.01 2.495 7.01 2.495 6 3 C6.66 3.66 7.32 4.32 8 5 C5.03 5.66 2.06 6.32 -1 7 C-1.33 6.34 -1.66 5.68 -2 5 C-2.99 4.67 -3.98 4.34 -5 4 C-3.35 3.67 -1.7 3.34 0 3 C0 2.01 0 1.02 0 0 Z " fill="#BA9900" transform="translate(118,300)"/>
<path d="M0 0 C1.9375 0.3125 1.9375 0.3125 4 1 C4.33 1.99 4.66 2.98 5 4 C1.24391637 5.82438348 -0.98949808 6.30070333 -5 5 C-5.66 4.34 -6.32 3.68 -7 3 C-3.535 2.505 -3.535 2.505 0 2 C0 1.34 0 0.68 0 0 Z " fill="#493C00" transform="translate(217,276)"/>
<path d="M0 0 C0.33 0.66 0.66 1.32 1 2 C0.39671875 2.04898437 -0.2065625 2.09796875 -0.828125 2.1484375 C-2.02695313 2.26058594 -2.02695313 2.26058594 -3.25 2.375 C-4.43335938 2.47941406 -4.43335938 2.47941406 -5.640625 2.5859375 C-8.085877 3.01507113 -9.84836903 3.78600638 -12 5 C-12 4.01 -12 3.02 -12 2 C-12.66 1.67 -13.32 1.34 -14 1 C-8.93565711 -0.48437636 -5.21782124 -1.52716719 0 0 Z " fill="#DCB500" transform="translate(225,270)"/>
<path d="M0 0 C0.99 0 1.98 0 3 0 C3 0.99 3 1.98 3 3 C3.99 3 4.98 3 6 3 C6.125 5.875 6.125 5.875 6 9 C5.34 9.66 4.68 10.32 4 11 C3.731875 10.2575 3.46375 9.515 3.1875 8.75 C2.05770579 6.13363446 0.79106798 4.19812889 -1 2 C-0.67 1.34 -0.34 0.68 0 0 Z " fill="#8D7400" transform="translate(332,165)"/>
<path d="M0 0 C2.5 1.75 2.5 1.75 5 4 C5 5.32 5 6.64 5 8 C5.99 8.33 6.98 8.66 8 9 C8 9.66 8 10.32 8 11 C7.01 11.33 6.02 11.66 5 12 C5 11.01 5 10.02 5 9 C4.34 9 3.68 9 3 9 C2.731875 7.865625 2.46375 6.73125 2.1875 5.5625 C1.795625 4.386875 1.40375 3.21125 1 2 C0.01 1.67 -0.98 1.34 -2 1 C-1.34 0.67 -0.68 0.34 0 0 Z " fill="#E1B900" transform="translate(331,168)"/>
<path d="M0 0 C-0.33 0.99 -0.66 1.98 -1 3 C-2.92578125 3.765625 -2.92578125 3.765625 -5.3125 4.25 C-6.48232422 4.50523437 -6.48232422 4.50523437 -7.67578125 4.765625 C-10.07651867 5.00771617 -11.71809588 4.7310448 -14 4 C-12.23494565 3.13395466 -10.46271926 2.28251358 -8.6875 1.4375 C-7.70136719 0.96183594 -6.71523437 0.48617188 -5.69921875 -0.00390625 C-3 -1 -3 -1 0 0 Z " fill="#9B8000" transform="translate(201,281)"/>
<path d="M0 0 C-1.86896555 0.84678051 -3.74550181 1.67686211 -5.625 2.5 C-7.19121094 3.19609375 -7.19121094 3.19609375 -8.7890625 3.90625 C-12.08124291 5.02767398 -14.55115223 5.207138 -18 5 C-17 3 -17 3 -14.19921875 1.89453125 C-12.46091797 1.35892578 -12.46091797 1.35892578 -10.6875 0.8125 C-9.53636719 0.44769531 -8.38523438 0.08289063 -7.19921875 -0.29296875 C-4.20460307 -0.95478247 -2.80251881 -1.08640853 0 0 Z " fill="#493C00" transform="translate(180,262)"/>
<path d="M0 0 C0.33 0.99 0.66 1.98 1 3 C-2.3 3.66 -5.6 4.32 -9 5 C-9.33 4.01 -9.66 3.02 -10 2 C-8.66666667 1.66666667 -7.33333333 1.33333333 -6 1 C-5.29875 0.814375 -4.5975 0.62875 -3.875 0.4375 C-2 0 -2 0 0 0 Z " fill="#746000" transform="translate(185,284)"/>
<path d="M0 0 C3.375 -0.125 3.375 -0.125 7 0 C7.66 0.66 8.32 1.32 9 2 C4.545 3.485 4.545 3.485 0 5 C0 3.35 0 1.7 0 0 Z " fill="#181400" transform="translate(395,225)"/>
<path d="M0 0 C1.50433594 0.01353516 1.50433594 0.01353516 3.0390625 0.02734375 C3.80992187 0.03894531 4.58078125 0.05054688 5.375 0.0625 C5.375 0.7225 5.375 1.3825 5.375 2.0625 C-1.06 2.5575 -1.06 2.5575 -7.625 3.0625 C-7.625 2.4025 -7.625 1.7425 -7.625 1.0625 C-4.98041621 -0.25979189 -2.94738699 -0.03427194 0 0 Z " fill="#5C4C00" transform="translate(256.625,264.9375)"/>
<path d="M0 0 C0.99 0.33 1.98 0.66 3 1 C3 1.99 3 2.98 3 4 C3.99 4.33 4.98 4.66 6 5 C6 5.33 6 5.66 6 6 C4.02 6.33 2.04 6.66 0 7 C-0.66 5.35 -1.32 3.7 -2 2 C-1.34 2 -0.68 2 0 2 C0 1.34 0 0.68 0 0 Z " fill="#B89800" transform="translate(120,259)"/>
<path d="M0 0 C1.43739513 -0.02712066 2.87493863 -0.04645067 4.3125 -0.0625 C5.51326172 -0.07990234 5.51326172 -0.07990234 6.73828125 -0.09765625 C9 0 9 0 12 1 C12 1.99 12 2.98 12 4 C11.38125 4.144375 10.7625 4.28875 10.125 4.4375 C7.96741678 4.93152225 7.96741678 4.93152225 6 6 C6 4.68 6 3.36 6 2 C3.03 1.505 3.03 1.505 0 1 C0 0.67 0 0.34 0 0 Z " fill="#CEA900" transform="translate(168,222)"/>
<path d="M0 0 C1.4800841 0.11362262 2.95910074 0.24122908 4.4375 0.375 C5.26121094 0.44460938 6.08492187 0.51421875 6.93359375 0.5859375 C7.95646484 0.79089844 7.95646484 0.79089844 9 1 C9.33 1.66 9.66 2.32 10 3 C6.04 3.66 2.08 4.32 -2 5 C-1.34 3.35 -0.68 1.7 0 0 Z " fill="#BB9A00" transform="translate(201,294)"/>
<path d="M0 0 C-0.33 1.65 -0.66 3.3 -1 5 C-3.64 5 -6.28 5 -9 5 C-9 4.67 -9 4.34 -9 4 C-7.35 4 -5.7 4 -4 4 C-4 3.34 -4 2.68 -4 2 C-5.65 2 -7.3 2 -9 2 C-9 1.67 -9 1.34 -9 1 C-5.846632 0.29925156 -3.27275026 0 0 0 Z " fill="#977C00" transform="translate(296,278)"/>
<path d="M0 0 C1.65 0.33 3.3 0.66 5 1 C2 3 2 3 -2 3 C-2 3.66 -2 4.32 -2 5 C-3.65 4.67 -5.3 4.34 -7 4 C-7 3.01 -7 2.02 -7 1 C-4.69 1.33 -2.38 1.66 0 2 C0 1.34 0 0.68 0 0 Z " fill="#735F00" transform="translate(236,272)"/>
<path d="M0 0 C-0.3125 1.875 -0.3125 1.875 -1 4 C-4 6 -4 6 -6.1875 5.625 C-6.785625 5.41875 -7.38375 5.2125 -8 5 C-7.1875 3.0625 -7.1875 3.0625 -6 1 C-3 0 -3 0 0 0 Z " fill="#C7A400" transform="translate(246,254)"/>
<path d="M0 0 C-0.33 0.99 -0.66 1.98 -1 3 C-3.5625 4.1875 -3.5625 4.1875 -6 5 C-6.66 3.68 -7.32 2.36 -8 1 C-4.93251126 -0.86240388 -3.40254489 -1.2151946 0 0 Z " fill="#957B00" transform="translate(326,258)"/>
<path d="M0 0 C1.65 0.33 3.3 0.66 5 1 C5 1.66 5 2.32 5 3 C3.03533587 4.06775224 1.03144641 5.06553465 -1 6 C-1.66 5.67 -2.32 5.34 -3 5 C-3 4.01 -3 3.02 -3 2 C-2.01 2 -1.02 2 0 2 C0 1.34 0 0.68 0 0 Z " fill="#B89700" transform="translate(175,257)"/>
<path d="M0 0 C0.33 0.99 0.66 1.98 1 3 C-0.58226965 3.19627391 -2.16589271 3.38165538 -3.75 3.5625 C-4.63171875 3.66691406 -5.5134375 3.77132813 -6.421875 3.87890625 C-9 4 -9 4 -13 3 C-8.71 2.01 -4.42 1.02 0 0 Z " fill="#5C4B00" transform="translate(212,296)"/>
<path d="M0 0 C0 0.66 0 1.32 0 2 C-3.43515002 2.62457273 -6.49064814 3 -10 3 C-10 2.34 -10 1.68 -10 1 C-3.71428571 -1.42857143 -3.71428571 -1.42857143 0 0 Z " fill="#685600" transform="translate(149,296)"/>
<path d="M0 0 C0.33 1.32 0.66 2.64 1 4 C0.01 4 -0.98 4 -2 4 C-2 3.34 -2 2.68 -2 2 C-4.31 1.67 -6.62 1.34 -9 1 C-5.64919071 -1.10976881 -3.77897651 -1.0497157 0 0 Z " fill="#E1B900" transform="translate(230,274)"/>
<path d="M0 0 C1.32 0 2.64 0 4 0 C4 0.66 4 1.32 4 2 C8.455 1.505 8.455 1.505 13 1 C10.14521674 2.90318884 8.58058692 3.4619099 5.3125 4.125 C4.50425781 4.29257812 3.69601563 4.46015625 2.86328125 4.6328125 C2.24839844 4.75398438 1.63351563 4.87515625 1 5 C1.33 4.01 1.66 3.02 2 2 C1.34 2 0.68 2 0 2 C0 1.34 0 0.68 0 0 Z " fill="#EFC500" transform="translate(158,286)"/>
<path d="M0 0 C4.455 0.99 4.455 0.99 9 2 C9 2.33 9 2.66 9 3 C5.37 3.66 1.74 4.32 -2 5 C-2 4.34 -2 3.68 -2 3 C-1.34 2.67 -0.68 2.34 0 2 C0 1.34 0 0.68 0 0 Z " fill="#806900" transform="translate(276,281)"/>
<path d="M0 0 C-0.99 0.33 -1.98 0.66 -3 1 C-3 1.66 -3 2.32 -3 3 C-5.31 3 -7.62 3 -10 3 C-10 2.34 -10 1.68 -10 1 C-8.71073008 0.63720544 -7.41846728 0.28503302 -6.125 -0.0625 C-5.40570313 -0.25972656 -4.68640625 -0.45695312 -3.9453125 -0.66015625 C-2 -1 -2 -1 0 0 Z " fill="#F6CB00" transform="translate(279,280)"/>
<path d="M0 0 C0.79921875 0.11085938 1.5984375 0.22171875 2.421875 0.3359375 C3.32679688 0.47902344 3.32679688 0.47902344 4.25 0.625 C4.25 0.955 4.25 1.285 4.25 1.625 C2.64950296 2.01536513 1.04437629 2.38678619 -0.5625 2.75 C-1.45582031 2.95882813 -2.34914062 3.16765625 -3.26953125 3.3828125 C-5.75 3.625 -5.75 3.625 -8.75 1.625 C-5.5750906 -0.2828584 -3.64414789 -0.5359041 0 0 Z " fill="#AB8C00" transform="translate(243.75,289.375)"/>
<path d="M0 0 C3.63 0.33 7.26 0.66 11 1 C11 1.99 11 2.98 11 4 C10.34 4 9.68 4 9 4 C9 3.34 9 2.68 9 2 C6.36 2.33 3.72 2.66 1 3 C0.67 2.01 0.34 1.02 0 0 Z " fill="#A18400" transform="translate(326,275)"/>
<path d="M0 0 C0.33 0.99 0.66 1.98 1 3 C-5.0546875 3.9765625 -5.0546875 3.9765625 -7 4 C-7.66 3.34 -8.32 2.68 -9 2 C-5.62902617 0.50178941 -3.79557881 0 0 0 Z " fill="#FBCF00" transform="translate(200,275)"/>
<path d="M0 0 C2.31 0 4.62 0 7 0 C7 0.66 7 1.32 7 2 C8.32 2.33 9.64 2.66 11 3 C9.741875 3.020625 8.48375 3.04125 7.1875 3.0625 C6.47980469 3.07410156 5.77210938 3.08570313 5.04296875 3.09765625 C3 3 3 3 0 2 C0 1.34 0 0.68 0 0 Z " fill="#C5A200" transform="translate(319,271)"/>
<path d="M0 0 C0.66 0.33 1.32 0.66 2 1 C2 1.99 2 2.98 2 4 C-4.625 5.25 -4.625 5.25 -8 3 C-6.35 3 -4.7 3 -3 3 C-3 2.34 -3 1.68 -3 1 C-2.01 0.67 -1.02 0.34 0 0 Z " fill="#2F2700" transform="translate(176,265)"/>
<path d="M0 0 C0.625 1.875 0.625 1.875 1 4 C0.34 4.66 -0.32 5.32 -1 6 C-3.125 5.625 -3.125 5.625 -5 5 C-4 2 -4 2 -1.9375 0.8125 C-1.298125 0.544375 -0.65875 0.27625 0 0 Z " fill="#E3BB00" transform="translate(369,240)"/>
<path d="M0 0 C0.66 0 1.32 0 2 0 C1.67 1.98 1.34 3.96 1 6 C0.34 6 -0.32 6 -1 6 C-1.33 7.32 -1.66 8.64 -2 10 C-2.1953125 3.9453125 -2.1953125 3.9453125 -2 2 C-1.34 1.34 -0.68 0.68 0 0 Z " fill="#AE8F00" transform="translate(92,209)"/>
<path d="M0 0 C1.65 0 3.3 0 5 0 C5 1.32 5 2.64 5 4 C5.66 4 6.32 4 7 4 C7 5.98 7 7.96 7 10 C4 6.375 4 6.375 4 3 C3.34 3 2.68 3 2 3 C2 2.34 2 1.68 2 1 C1.34 0.67 0.68 0.34 0 0 Z " fill="#7D6700" transform="translate(199,206)"/>
<path d="M0 0 C0 0.66 0 1.32 0 2 C-3.3 2.33 -6.6 2.66 -10 3 C-6.3610428 -0.6389572 -4.8943498 -1.63144993 0 0 Z " fill="#504200" transform="translate(194,279)"/>
<path d="M0 0 C-0.33 0.99 -0.66 1.98 -1 3 C-4.96 2.67 -8.92 2.34 -13 2 C-13 1.67 -13 1.34 -13 1 C-8.60563789 0.14256349 -4.47427924 -0.08948558 0 0 Z " fill="#AA8C00" transform="translate(306,274)"/>
<path d="M0 0 C0.33 0.99 0.66 1.98 1 3 C1.66 3 2.32 3 3 3 C1.73293765 5.53412471 0.59334288 5.97838008 -2 7 C-2.66 6.67 -3.32 6.34 -4 6 C-3.01 5.67 -2.02 5.34 -1 5 C-1.66 3.68 -2.32 2.36 -3 1 C-2.01 0.67 -1.02 0.34 0 0 Z " fill="#C5A200" transform="translate(105,211)"/>
<path d="M0 0 C2.64 0.33 5.28 0.66 8 1 C6.5 2.5625 6.5 2.5625 4 4 C1.22562457 3.96823234 -1.25286467 3.50364148 -4 3 C-2.68 2.67 -1.36 2.34 0 2 C0 1.34 0 0.68 0 0 Z " fill="#332A00" transform="translate(284,280)"/>
<path d="M0 0 C0.99 0 1.98 0 3 0 C3.33 2.31 3.66 4.62 4 7 C2.35 5.68 0.7 4.36 -1 3 C-0.67 2.01 -0.34 1.02 0 0 Z " fill="#302700" transform="translate(387,238)"/>
<path d="M0 0 C0 1.32 0 2.64 0 4 C-2.97 3.67 -5.94 3.34 -9 3 C-6.31795079 0.31795079 -3.73391546 0 0 0 Z " fill="#423600" transform="translate(250,287)"/>
<path d="M0 0 C-0.99 1.485 -0.99 1.485 -2 3 C-2.99 3 -3.98 3 -5 3 C-5 2.34 -5 1.68 -5 1 C-6.32 0.67 -7.64 0.34 -9 0 C-5.62182575 -0.84454356 -3.32534757 -1.10844919 0 0 Z " fill="#E5BD00" transform="translate(261,263)"/>
<path d="M0 0 C2.4375 0.8125 2.4375 0.8125 5 2 C5.33 2.99 5.66 3.98 6 5 C5.34 5.66 4.68 6.32 4 7 C0 2.25 0 2.25 0 0 Z " fill="#D6B000" transform="translate(125,247)"/>
<path d="M0 0 C1.32 0.33 2.64 0.66 4 1 C4 1.66 4 2.32 4 3 C1.36 3.66 -1.28 4.32 -4 5 C-2.68 3.35 -1.36 1.7 0 0 Z " fill="#231C00" transform="translate(371,234)"/>
<path d="M0 0 C0.66 0.33 1.32 0.66 2 1 C1.67 1.66 1.34 2.32 1 3 C0.34 3 -0.32 3 -1 3 C-1.33 3.99 -1.66 4.98 -2 6 C-2.66 5.67 -3.32 5.34 -4 5 C-3.6875 3.0625 -3.6875 3.0625 -3 1 C-2.01 0.67 -1.02 0.34 0 0 Z " fill="#F3C800" transform="translate(123,298)"/>
<path d="M0 0 C2.64 0 5.28 0 8 0 C8 0.99 8 1.98 8 3 C6.68 3.33 5.36 3.66 4 4 C4 3.01 4 2.02 4 1 C2.68 0.67 1.36 0.34 0 0 Z " fill="#6A5700" transform="translate(151,292)"/>
<path d="M0 0 C2.25 0.25 2.25 0.25 4 1 C3.01 2.485 3.01 2.485 2 4 C-1.125 4.1875 -1.125 4.1875 -4 4 C-2.25 1.9375 -2.25 1.9375 0 0 Z " fill="#987D00" transform="translate(253,286)"/>
<path d="M0 0 C-2.76223278 2.76223278 -5.20706617 2.57856291 -9 3 C-9.33 2.34 -9.66 1.68 -10 1 C-6.78548731 -0.60725635 -3.56387464 -0.05748185 0 0 Z " fill="#C2A000" transform="translate(151,293)"/>
<path d="M0 0 C2.97 0.495 2.97 0.495 6 1 C5.67 1.99 5.34 2.98 5 4 C3.35 4 1.7 4 0 4 C0 2.68 0 1.36 0 0 Z " fill="#A48700" transform="translate(222,275)"/>
<path d="M0 0 C0.94875 0.350625 1.8975 0.70125 2.875 1.0625 C2.545 2.0525 2.215 3.0425 1.875 4.0625 C1.875 3.4025 1.875 2.7425 1.875 2.0625 C-0.105 2.0625 -2.085 2.0625 -4.125 2.0625 C-4.455 1.4025 -4.785 0.7425 -5.125 0.0625 C-3.125 -0.9375 -3.125 -0.9375 0 0 Z " fill="#D3AE00" transform="translate(378.125,239.9375)"/>
</svg>
